<svg width="261" height="66" viewBox="0 0 261 66" fill="none" xmlns="http://www.w3.org/2000/svg" xmlns:xlink="http://www.w3.org/1999/xlink">
<symbol id="logo-symbol-wordmark">
<path d="M15.754 52.7805C12.8593 52.7805 10.3893 52.1392 8.344 50.8565C6.29867 49.5565 4.73 47.7885 3.638 45.5525C2.56333 43.3165 2.01733 40.7859 2 37.9605C2.01733 35.0832 2.58067 32.5352 3.69 30.3165C4.81667 28.0805 6.41133 26.3299 8.474 25.0645C10.5367 23.7819 12.9893 23.1405 15.832 23.1405C19.0213 23.1405 21.7167 23.9465 23.918 25.5585C26.1367 27.1532 27.584 29.3372 28.26 32.1105L22.02 33.8005C21.5347 32.2925 20.7287 31.1225 19.602 30.2906C18.4753 29.4412 17.1927 29.0165 15.754 29.0165C14.1247 29.0165 12.7813 29.4065 11.724 30.1865C10.6667 30.9492 9.88667 32.0066 9.384 33.3586C8.88133 34.7106 8.63 36.2445 8.63 37.9605C8.63 40.6299 9.228 42.7879 10.424 44.4345C11.62 46.0812 13.3967 46.9045 15.754 46.9045C17.418 46.9045 18.7267 46.5232 19.68 45.7605C20.6507 44.9979 21.3787 43.8972 21.864 42.4585L28.26 43.8885C27.3933 46.7485 25.8767 48.9499 23.71 50.4925C21.5433 52.0179 18.8913 52.7805 15.754 52.7805Z" fill="currentColor"/>
<path d="M52.8922 52.0005V38.4805C52.8922 37.5965 52.8315 36.6172 52.7102 35.5425C52.5888 34.4679 52.3028 33.4365 51.8522 32.4485C51.4188 31.4432 50.7602 30.6199 49.8762 29.9785C49.0095 29.3372 47.8308 29.0165 46.3402 29.0165C45.5428 29.0165 44.7542 29.1465 43.9742 29.4065C43.1942 29.6665 42.4835 30.1172 41.8422 30.7585C41.2182 31.3825 40.7155 32.2492 40.3342 33.3586C39.9528 34.4506 39.7622 35.8545 39.7622 37.5705L36.0442 35.9845C36.0442 33.5925 36.5035 31.4259 37.4222 29.4845C38.3582 27.5432 39.7275 26.0005 41.5302 24.8565C43.3328 23.6952 45.5515 23.1145 48.1862 23.1145C50.2662 23.1145 51.9822 23.4612 53.3342 24.1545C54.6862 24.8479 55.7608 25.7319 56.5582 26.8065C57.3555 27.8812 57.9448 29.0252 58.3262 30.2385C58.7075 31.4519 58.9502 32.6045 59.0542 33.6965C59.1755 34.7712 59.2362 35.6465 59.2362 36.3225V52.0005H52.8922ZM33.4182 52.0005V14.5605H39.0082V34.2685H39.7622V52.0005H33.4182Z" fill="currentColor"/>
<path d="M73.8729 52.7805C71.8449 52.7805 70.1289 52.3992 68.7249 51.6366C67.3209 50.8566 66.2549 49.8252 65.5269 48.5425C64.8163 47.2599 64.4609 45.8472 64.4609 44.3046C64.4609 42.9526 64.6863 41.7392 65.1369 40.6645C65.5876 39.5725 66.2809 38.6365 67.2169 37.8565C68.1529 37.0592 69.3663 36.4092 70.8569 35.9065C71.9836 35.5425 73.3009 35.2132 74.8089 34.9185C76.3343 34.6239 77.9809 34.3552 79.7489 34.1125C81.5343 33.8525 83.3976 33.5752 85.3389 33.2805L83.1029 34.5546C83.1203 32.6132 82.6869 31.1832 81.8029 30.2645C80.9189 29.3459 79.4283 28.8865 77.3309 28.8865C76.0656 28.8865 74.8436 29.1812 73.6649 29.7705C72.4863 30.3599 71.6629 31.3739 71.1949 32.8125L65.4749 31.0185C66.1683 28.6439 67.4856 26.7372 69.4269 25.2985C71.3856 23.8599 74.0203 23.1405 77.3309 23.1405C79.8269 23.1405 82.0196 23.5479 83.9089 24.3625C85.8156 25.1772 87.2283 26.5119 88.1469 28.3665C88.6496 29.3545 88.9529 30.3685 89.0569 31.4085C89.1609 32.4312 89.2129 33.5492 89.2129 34.7625V52.0005H83.7269V45.9165L84.6369 46.9045C83.3716 48.9325 81.8896 50.4232 80.1909 51.3765C78.5096 52.3125 76.4036 52.7805 73.8729 52.7805ZM75.1209 47.7885C76.5423 47.7885 77.7556 47.5372 78.7609 47.0345C79.7663 46.5319 80.5636 45.9165 81.1529 45.1885C81.7596 44.4605 82.1669 43.7759 82.3749 43.1345C82.7043 42.3372 82.8863 41.4272 82.9209 40.4045C82.9729 39.3645 82.9989 38.5239 82.9989 37.8825L84.9229 38.4545C83.0336 38.7492 81.4129 39.0092 80.0609 39.2346C78.7089 39.4599 77.5476 39.6765 76.5769 39.8845C75.6063 40.0752 74.7483 40.2919 74.0029 40.5345C73.2749 40.7945 72.6596 41.0979 72.1569 41.4445C71.6543 41.7912 71.2643 42.1899 70.9869 42.6405C70.7269 43.0912 70.5969 43.6199 70.5969 44.2265C70.5969 44.9199 70.7703 45.5352 71.1169 46.0725C71.4636 46.5925 71.9663 47.0085 72.6249 47.3205C73.3009 47.6325 74.1329 47.7885 75.1209 47.7885Z" fill="currentColor"/>
<path d="M112.44 52.0005C110.585 52.3472 108.765 52.4946 106.98 52.4426C105.212 52.4079 103.626 52.0872 102.222 51.4805C100.818 50.8565 99.7519 49.8772 99.0239 48.5425C98.3825 47.3292 98.0445 46.0899 98.0099 44.8245C97.9752 43.5592 97.9579 42.1292 97.9579 40.5345V16.1205H104.198V40.1705C104.198 41.2972 104.207 42.2852 104.224 43.1345C104.259 43.9839 104.441 44.6772 104.77 45.2146C105.394 46.2546 106.391 46.8352 107.76 46.9566C109.129 47.0779 110.689 47.0086 112.44 46.7486V52.0005ZM92.8619 28.8345V23.9205H112.44V28.8345H92.8619ZM131.836 52.0005C129.981 52.3472 128.161 52.4946 126.376 52.4426C124.608 52.4079 123.022 52.0872 121.618 51.4805C120.214 50.8565 119.148 49.8772 118.42 48.5425C117.779 47.3292 117.441 46.0899 117.406 44.8245C117.371 43.5592 117.354 42.1292 117.354 40.5345V16.1205H123.594V40.1705C123.594 41.2972 123.603 42.2852 123.62 43.1345C123.655 43.9839 123.837 44.6772 124.166 45.2146C124.79 46.2546 125.787 46.8352 127.156 46.9566C128.525 47.0779 130.085 47.0086 131.836 46.7486V52.0005ZM112.258 28.8345V23.9205H131.836V28.8345H112.258Z" fill="currentColor"/>
<path d="M150.693 52.7805C147.851 52.7805 145.355 52.1652 143.205 50.9345C141.056 49.7039 139.375 47.9965 138.161 45.8125C136.965 43.6285 136.367 41.1152 136.367 38.2725C136.367 35.2045 136.957 32.5439 138.135 30.2906C139.314 28.0199 140.952 26.2605 143.049 25.0125C145.147 23.7645 147.573 23.1405 150.329 23.1405C153.241 23.1405 155.711 23.8252 157.739 25.1945C159.785 26.5465 161.301 28.4619 162.289 30.9405C163.277 33.4192 163.65 36.3399 163.407 39.7025H157.193V37.4145C157.176 34.3639 156.639 32.1365 155.581 30.7325C154.524 29.3285 152.86 28.6265 150.589 28.6265C148.024 28.6265 146.117 29.4239 144.869 31.0185C143.621 32.5959 142.997 34.9099 142.997 37.9605C142.997 40.8032 143.621 43.0045 144.869 44.5645C146.117 46.1245 147.937 46.9045 150.329 46.9045C151.872 46.9045 153.198 46.5665 154.307 45.8905C155.434 45.1972 156.301 44.2005 156.907 42.9005L163.095 44.7725C162.021 47.3032 160.357 49.2705 158.103 50.6745C155.867 52.0785 153.397 52.7805 150.693 52.7805ZM141.021 39.7025V34.9705H160.339V39.7025H141.021Z" fill="currentColor"/>
<path d="M169.208 52.0005V23.9205H174.746V30.7585L174.07 29.8745C174.417 28.9385 174.876 28.0892 175.448 27.3265C176.038 26.5465 176.74 25.9052 177.554 25.4025C178.248 24.9345 179.01 24.5705 179.842 24.3105C180.692 24.0332 181.558 23.8685 182.442 23.8165C183.326 23.7472 184.184 23.7819 185.016 23.9205V29.7705C184.184 29.5279 183.222 29.4499 182.13 29.5365C181.056 29.6232 180.085 29.9265 179.218 30.4465C178.352 30.9145 177.641 31.5125 177.086 32.2405C176.549 32.9685 176.15 33.8005 175.89 34.7365C175.63 35.6552 175.5 36.6519 175.5 37.7265V52.0005H169.208Z" fill="currentColor"/>
<path d="M186.854 52.0005V45.5785H193.276V52.0005H186.854Z" fill="currentColor"/>
<path d="M221.029 52.0012V38.4812C221.029 37.5972 220.968 36.6179 220.847 35.5432C220.726 34.4686 220.44 33.4372 219.989 32.4492C219.556 31.4439 218.897 30.6206 218.013 29.9792C217.146 29.3379 215.968 29.0172 214.477 29.0172C213.68 29.0172 212.891 29.1472 212.111 29.4072C211.331 29.6672 210.62 30.1179 209.979 30.7592C209.355 31.3832 208.852 32.2499 208.471 33.3592C208.09 34.4512 207.899 35.8552 207.899 37.5712L204.181 35.9852C204.181 33.5932 204.64 31.4266 205.559 29.4852C206.495 27.5439 207.864 26.0012 209.667 24.8572C211.47 23.6959 213.688 23.1152 216.323 23.1152C218.403 23.1152 220.119 23.4619 221.471 24.1552C222.823 24.8486 223.898 25.7326 224.695 26.8072C225.492 27.8819 226.082 29.0259 226.463 30.2392C226.844 31.4526 227.087 32.6052 227.191 33.6972C227.312 34.7719 227.373 35.6472 227.373 36.3232V52.0012H221.029ZM201.555 52.0012V23.9212H207.145V32.6312H207.899V52.0012H201.555Z" fill="#5D50E6"/>
<path d="M244.688 52.8072C242.608 52.8072 240.892 52.4606 239.54 51.7672C238.188 51.0739 237.113 50.1899 236.316 49.1152C235.518 48.0406 234.929 46.8966 234.548 45.6832C234.166 44.4699 233.915 43.3259 233.794 42.2512C233.69 41.1592 233.638 40.2752 233.638 39.5992V23.9212H239.982V37.4412C239.982 38.3079 240.042 39.2872 240.164 40.3792C240.285 41.4539 240.562 42.4939 240.996 43.4992C241.446 44.4872 242.105 45.3019 242.972 45.9432C243.856 46.5846 245.043 46.9052 246.534 46.9052C247.331 46.9052 248.12 46.7752 248.9 46.5152C249.68 46.2552 250.382 45.8132 251.006 45.1892C251.647 44.5479 252.158 43.6726 252.54 42.5632C252.921 41.4539 253.112 40.0499 253.112 38.3512L256.83 39.9372C256.83 42.3292 256.362 44.4959 255.426 46.4372C254.507 48.3786 253.146 49.9299 251.344 51.0912C249.541 52.2352 247.322 52.8072 244.688 52.8072ZM253.866 52.0012V43.2912H253.112V23.9212H259.404V52.0012H253.866Z" fill="#5D50E6"/>
</symbol><use xlink:href="#logo-symbol-wordmark"/>
</svg>