<svg width="65" height="65" viewBox="0 0 61 65" fill="none" xmlns="http://www.w3.org/2000/svg">
<path d="M60.7539 14.3904C59.8143 7.40642 53.7273 1.90257 46.5117 0.836066C45.2943 0.655854 40.6819 0 29.9973 0H29.9175C19.2299 0 16.937 0.655854 15.7196 0.836066C8.70488 1.87302 2.29885 6.81852 0.744617 13.8852C-0.00294988 17.3654 -0.0827298 21.2237 0.0561464 24.7629C0.254119 29.8384 0.292531 34.905 0.753482 39.9598C1.07215 43.3175 1.62806 46.6484 2.41704 49.9276C3.89445 55.9839 9.87499 61.0239 15.7344 63.0801C22.0077 65.2244 28.7542 65.5804 35.2184 64.1082C35.9295 63.9428 36.6318 63.7508 37.3252 63.5321C38.8971 63.0329 40.738 62.4745 42.0913 61.4937C42.1099 61.4799 42.1251 61.4621 42.1358 61.4417C42.1466 61.4212 42.1526 61.3986 42.1534 61.3755V56.4773C42.153 56.4557 42.1479 56.4345 42.1383 56.4151C42.1287 56.3958 42.1149 56.3788 42.0979 56.3655C42.0809 56.3522 42.0611 56.3429 42.04 56.3382C42.019 56.3335 41.9971 56.3336 41.9761 56.3384C37.8345 57.3276 33.5905 57.8234 29.3324 57.8156C22.0045 57.8156 20.0336 54.3384 19.4693 52.8908C19.0156 51.6397 18.7275 50.3346 18.6124 49.0088C18.6112 48.9866 18.6153 48.9643 18.6243 48.9439C18.6333 48.9236 18.647 48.9056 18.6643 48.8915C18.6816 48.8774 18.7019 48.8675 18.7237 48.8628C18.7455 48.858 18.7681 48.8585 18.7897 48.8641C22.8622 49.8465 27.037 50.3423 31.2265 50.3412C32.234 50.3412 33.2387 50.3412 34.2463 50.3146C38.4598 50.1964 42.9009 49.9808 47.0465 49.1713C47.1499 49.1506 47.2534 49.1329 47.342 49.1063C53.881 47.8507 60.1038 43.9097 60.7362 33.9301C60.7598 33.5372 60.8189 29.8148 60.8189 29.4071C60.8218 28.0215 61.2651 19.5781 60.7539 14.3904Z" fill="url(#paint0_linear_89_8)"/>
<path d="M32.528 39.36C29.872 39.36 27.616 38.768 25.76 37.584C23.904 36.4 22.48 34.776 21.488 32.712C20.512 30.648 20.016 28.304 20 25.68C20.016 23.008 20.528 20.648 21.536 18.6C22.544 16.536 23.984 14.92 25.856 13.752C27.728 12.584 29.976 12 32.6 12C35.432 12 37.848 12.704 39.848 14.112C41.864 15.52 43.192 17.448 43.832 19.896L38.84 21.336C38.344 19.88 37.528 18.752 36.392 17.952C35.272 17.136 33.984 16.728 32.528 16.728C30.88 16.728 29.528 17.12 28.472 17.904C27.416 18.672 26.632 19.728 26.12 21.072C25.608 22.416 25.344 23.952 25.328 25.68C25.344 28.352 25.952 30.512 27.152 32.16C28.368 33.808 30.16 34.632 32.528 34.632C34.144 34.632 35.448 34.264 36.44 33.528C37.448 32.776 38.216 31.704 38.744 30.312L43.832 31.512C42.984 34.04 41.584 35.984 39.632 37.344C37.68 38.688 35.312 39.36 32.528 39.36Z" fill="white"/>
<defs>
<linearGradient id="paint0_linear_89_8" x1="30.5" y1="0" x2="30.5" y2="65" gradientUnits="userSpaceOnUse">
<stop stop-color="#6364FF"/>
<stop offset="1" stop-color="#563ACC"/>
</linearGradient>
</defs>
</svg>
