<svg width="261" height="66" viewBox="0 0 261 66" fill="none" xmlns="http://www.w3.org/2000/svg" xmlns:xlink="http://www.w3.org/1999/xlink">
<symbol id="logo-symbol-wordmark">
<path d="M15.7839 50.28C13.1279 50.28 10.8719 49.688 9.01592 48.504C7.15992 47.32 5.73592 45.696 4.74392 43.632C3.76792 41.568 3.27192 39.224 3.25592 36.6C3.27192 33.928 3.78392 31.568 4.79192 29.52C5.79992 27.456 7.23992 25.84 9.11192 24.672C10.9839 23.504 13.2319 22.92 15.8559 22.92C18.6879 22.92 21.1039 23.624 23.1039 25.032C25.1199 26.44 26.4479 28.368 27.0879 30.816L22.0959 32.256C21.5999 30.8 20.7839 29.672 19.6479 28.872C18.5279 28.056 17.2399 27.648 15.7839 27.648C14.1359 27.648 12.7839 28.04 11.7279 28.824C10.6719 29.592 9.88792 30.648 9.37592 31.992C8.86392 33.336 8.59992 34.872 8.58392 36.6C8.59992 39.272 9.20792 41.432 10.4079 43.08C11.6239 44.728 13.4159 45.552 15.7839 45.552C17.3999 45.552 18.7039 45.184 19.6959 44.448C20.7039 43.696 21.4719 42.624 21.9999 41.232L27.0879 42.432C26.2399 44.96 24.8399 46.904 22.8879 48.264C20.9359 49.608 18.5679 50.28 15.7839 50.28Z" fill="currentColor"/>
<path d="M31.9772 49.56V23.64H36.4412V29.928L35.8172 29.112C36.1372 28.28 36.5532 27.52 37.0652 26.832C37.5772 26.128 38.1692 25.552 38.8412 25.104C39.4972 24.624 40.2252 24.256 41.0252 24C41.8412 23.728 42.6732 23.568 43.5212 23.52C44.3692 23.456 45.1852 23.496 45.9692 23.64V28.344C45.1212 28.12 44.1772 28.056 43.1372 28.152C42.1132 28.248 41.1692 28.576 40.3052 29.136C39.4892 29.664 38.8412 30.304 38.3612 31.056C37.8972 31.808 37.5612 32.648 37.3532 33.576C37.1452 34.488 37.0412 35.456 37.0412 36.48V49.56H31.9772Z" fill="currentColor"/>
<path d="M57.1097 50.28C55.1897 50.28 53.5817 49.928 52.2857 49.224C50.9897 48.504 50.0057 47.56 49.3337 46.392C48.6777 45.208 48.3497 43.912 48.3497 42.504C48.3497 41.192 48.5817 40.04 49.0457 39.048C49.5097 38.056 50.1977 37.216 51.1097 36.528C52.0217 35.824 53.1417 35.256 54.4697 34.824C55.6217 34.488 56.9257 34.192 58.3817 33.936C59.8377 33.68 61.3657 33.44 62.9657 33.216C64.5817 32.992 66.1817 32.768 67.7657 32.544L65.9417 33.552C65.9737 31.52 65.5417 30.016 64.6457 29.04C63.7657 28.048 62.2457 27.552 60.0857 27.552C58.7257 27.552 57.4777 27.872 56.3417 28.512C55.2057 29.136 54.4137 30.176 53.9657 31.632L49.2857 30.192C49.9257 27.968 51.1417 26.2 52.9337 24.888C54.7417 23.576 57.1417 22.92 60.1337 22.92C62.4537 22.92 64.4697 23.32 66.1817 24.12C67.9097 24.904 69.1737 26.152 69.9737 27.864C70.3897 28.712 70.6457 29.608 70.7417 30.552C70.8377 31.496 70.8857 32.512 70.8857 33.6V49.56H66.4457V43.632L67.3097 44.4C66.2377 46.384 64.8697 47.864 63.2057 48.84C61.5577 49.8 59.5257 50.28 57.1097 50.28ZM57.9977 46.176C59.4217 46.176 60.6457 45.928 61.6697 45.432C62.6937 44.92 63.5177 44.272 64.1417 43.488C64.7657 42.704 65.1737 41.888 65.3657 41.04C65.6377 40.272 65.7897 39.408 65.8217 38.448C65.8697 37.488 65.8937 36.72 65.8937 36.144L67.5257 36.744C65.9417 36.984 64.5017 37.2 63.2057 37.392C61.9097 37.584 60.7337 37.776 59.6777 37.968C58.6377 38.144 57.7097 38.36 56.8937 38.616C56.2057 38.856 55.5897 39.144 55.0457 39.48C54.5177 39.816 54.0937 40.224 53.7737 40.704C53.4697 41.184 53.3177 41.768 53.3177 42.456C53.3177 43.128 53.4857 43.752 53.8217 44.328C54.1577 44.888 54.6697 45.336 55.3577 45.672C56.0457 46.008 56.9257 46.176 57.9977 46.176Z" fill="currentColor"/>
<path d="M87.0298 50.256C83.8778 50.256 81.3098 49.56 79.3258 48.168C77.3418 46.776 76.1258 44.816 75.6778 42.288L80.8138 41.496C81.1338 42.84 81.8698 43.904 83.0218 44.688C84.1898 45.456 85.6378 45.84 87.3658 45.84C88.9338 45.84 90.1578 45.52 91.0378 44.88C91.9338 44.24 92.3818 43.36 92.3818 42.24C92.3818 41.584 92.2218 41.056 91.9018 40.656C91.5978 40.24 90.9498 39.848 89.9578 39.48C88.9658 39.112 87.4538 38.656 85.4218 38.112C83.1978 37.536 81.4298 36.92 80.1178 36.264C78.8218 35.592 77.8938 34.816 77.3338 33.936C76.7898 33.04 76.5178 31.96 76.5178 30.696C76.5178 29.128 76.9338 27.76 77.7658 26.592C78.5978 25.424 79.7658 24.52 81.2698 23.88C82.7898 23.24 84.5658 22.92 86.5978 22.92C88.5818 22.92 90.3498 23.232 91.9018 23.856C93.4538 24.48 94.7098 25.368 95.6698 26.52C96.6298 27.656 97.2058 28.992 97.3978 30.528L92.2618 31.464C92.0858 30.216 91.5018 29.232 90.5098 28.512C89.5178 27.792 88.2298 27.4 86.6458 27.336C85.1258 27.272 83.8938 27.528 82.9498 28.104C82.0058 28.664 81.5338 29.44 81.5338 30.432C81.5338 31.008 81.7098 31.496 82.0618 31.896C82.4298 32.296 83.1338 32.68 84.1738 33.048C85.2138 33.416 86.7498 33.856 88.7818 34.368C90.9578 34.928 92.6858 35.552 93.9658 36.24C95.2458 36.912 96.1578 37.72 96.7018 38.664C97.2618 39.592 97.5418 40.72 97.5418 42.048C97.5418 44.608 96.6058 46.616 94.7338 48.072C92.8778 49.528 90.3098 50.256 87.0298 50.256Z" fill="currentColor"/>
<path d="M121.044 49.56V36.816C121.044 35.808 120.956 34.776 120.78 33.72C120.62 32.648 120.3 31.656 119.82 30.744C119.356 29.832 118.692 29.096 117.828 28.536C116.98 27.976 115.868 27.696 114.492 27.696C113.596 27.696 112.748 27.848 111.948 28.152C111.148 28.44 110.444 28.912 109.836 29.568C109.244 30.224 108.772 31.088 108.42 32.16C108.084 33.232 107.916 34.536 107.916 36.072L104.796 34.896C104.796 32.544 105.236 30.472 106.116 28.68C106.996 26.872 108.26 25.464 109.908 24.456C111.556 23.448 113.548 22.944 115.884 22.944C117.676 22.944 119.18 23.232 120.396 23.808C121.612 24.384 122.596 25.144 123.348 26.088C124.116 27.016 124.7 28.032 125.1 29.136C125.5 30.24 125.772 31.32 125.916 32.376C126.06 33.432 126.132 34.36 126.132 35.16V49.56H121.044ZM102.828 49.56V15H107.316V33.648H107.916V49.56H102.828Z" fill="currentColor"/>
<path d="M143.879 50.28C141.303 50.28 139.039 49.72 137.087 48.6C135.151 47.464 133.639 45.888 132.551 43.872C131.479 41.84 130.943 39.488 130.943 36.816C130.943 33.984 131.471 31.528 132.527 29.448C133.599 27.368 135.087 25.76 136.991 24.624C138.895 23.488 141.111 22.92 143.639 22.92C146.279 22.92 148.527 23.536 150.383 24.768C152.239 25.984 153.623 27.72 154.535 29.976C155.463 32.232 155.831 34.912 155.639 38.016H150.623V36.192C150.591 33.184 150.015 30.96 148.895 29.52C147.791 28.08 146.103 27.36 143.831 27.36C141.319 27.36 139.431 28.152 138.167 29.736C136.903 31.32 136.271 33.608 136.271 36.6C136.271 39.448 136.903 41.656 138.167 43.224C139.431 44.776 141.255 45.552 143.639 45.552C145.207 45.552 146.559 45.2 147.695 44.496C148.847 43.776 149.743 42.752 150.383 41.424L155.303 42.984C154.295 45.304 152.767 47.104 150.719 48.384C148.671 49.648 146.391 50.28 143.879 50.28ZM134.639 38.016V34.104H153.143V38.016H134.639Z" fill="currentColor"/>
<path d="M171.32 50.28C168.904 50.28 166.816 49.68 165.056 48.48C163.312 47.28 161.96 45.648 161 43.584C160.056 41.504 159.584 39.168 159.584 36.576C159.584 33.968 160.064 31.64 161.024 29.592C161.984 27.528 163.344 25.904 165.104 24.72C166.88 23.52 168.984 22.92 171.416 22.92C173.864 22.92 175.92 23.52 177.584 24.72C179.264 25.904 180.528 27.528 181.376 29.592C182.24 31.656 182.672 33.984 182.672 36.576C182.672 39.168 182.24 41.496 181.376 43.56C180.512 45.624 179.24 47.264 177.56 48.48C175.88 49.68 173.8 50.28 171.32 50.28ZM172.016 45.744C173.664 45.744 175.008 45.352 176.048 44.568C177.088 43.784 177.848 42.704 178.328 41.328C178.808 39.952 179.048 38.368 179.048 36.576C179.048 34.784 178.8 33.2 178.304 31.824C177.824 30.448 177.072 29.376 176.048 28.608C175.04 27.84 173.752 27.456 172.184 27.456C170.52 27.456 169.152 27.864 168.08 28.68C167.008 29.496 166.208 30.592 165.68 31.968C165.168 33.344 164.912 34.88 164.912 36.576C164.912 38.288 165.168 39.84 165.68 41.232C166.208 42.608 166.992 43.704 168.032 44.52C169.088 45.336 170.416 45.744 172.016 45.744ZM179.048 49.56V30.912H178.472V15H183.512V49.56H179.048Z" fill="currentColor"/>
<path d="M191.091 49.56V44.256H196.395V49.56H191.091Z" fill="currentColor"/>
<path d="M222.154 49.5594V36.8154C222.154 35.8074 222.066 34.7754 221.89 33.7194C221.73 32.6474 221.41 31.6554 220.93 30.7434C220.466 29.8314 219.802 29.0954 218.938 28.5354C218.09 27.9754 216.978 27.6954 215.602 27.6954C214.706 27.6954 213.858 27.8474 213.058 28.1514C212.258 28.4394 211.554 28.9114 210.946 29.5674C210.354 30.2234 209.882 31.0874 209.53 32.1594C209.194 33.2314 209.026 34.5354 209.026 36.0714L205.906 34.8954C205.906 32.5434 206.346 30.4714 207.226 28.6794C208.106 26.8714 209.37 25.4634 211.018 24.4554C212.666 23.4474 214.658 22.9434 216.994 22.9434C218.786 22.9434 220.29 23.2314 221.506 23.8074C222.722 24.3834 223.706 25.1434 224.458 26.0874C225.226 27.0154 225.81 28.0314 226.21 29.1354C226.61 30.2394 226.882 31.3194 227.026 32.3754C227.17 33.4314 227.242 34.3594 227.242 35.1594V49.5594H222.154ZM203.938 49.5594V23.6394H208.426V31.1274H209.026V49.5594H203.938Z" fill="#595aff"/>
<path d="M243.261 50.2554C241.469 50.2554 239.965 49.9674 238.749 49.3914C237.533 48.8154 236.541 48.0634 235.773 47.1354C235.021 46.1914 234.445 45.1674 234.045 44.0634C233.645 42.9594 233.373 41.8794 233.229 40.8234C233.085 39.7674 233.013 38.8394 233.013 38.0394V23.6394H238.101V36.3834C238.101 37.3914 238.181 38.4314 238.341 39.5034C238.517 40.5594 238.837 41.5434 239.301 42.4554C239.781 43.3674 240.445 44.1034 241.293 44.6634C242.157 45.2234 243.277 45.5034 244.653 45.5034C245.549 45.5034 246.397 45.3594 247.197 45.0714C247.997 44.7674 248.693 44.2874 249.285 43.6314C249.893 42.9754 250.365 42.1114 250.701 41.0394C251.053 39.9674 251.229 38.6634 251.229 37.1274L254.349 38.3034C254.349 40.6554 253.909 42.7354 253.029 44.5434C252.149 46.3354 250.885 47.7354 249.237 48.7434C247.589 49.7514 245.597 50.2554 243.261 50.2554ZM251.829 49.5594V42.0714H251.229V23.6394H256.293V49.5594H251.829Z" fill="#595aff"/>
</symbol><use xlink:href="#logo-symbol-wordmark"/>
</svg>